<?xml version="1.0" encoding="iso-8859-1"?>
<!-- Generator: Adobe Illustrator 19.0.0, SVG Export Plug-In . SVG Version: 6.00 Build 0)  -->
<svg version="1.1" id="Capa_1" xmlns="http://www.w3.org/2000/svg" xmlns:xlink="http://www.w3.org/1999/xlink" x="0px" y="0px"
	 viewBox="0 0 403.456 403.456" style="enable-background:new 0 0 403.456 403.456;" xml:space="preserve">
<g>
	<g>
		<path d="M342.77,40.448C318.194,13.824,270.578,0,201.97,0C132.85,0,85.746,13.312,61.17,40.448
			c-17.408,18.944-16.384,37.888-16.384,38.4v247.808c0,15.872,12.8,29.184,29.184,29.184h27.136l-31.232,39.424
			c-1.536,2.048-1.536,5.632,1.024,7.168c1.024,0.512,2.048,1.024,3.072,1.024c1.536,0,3.072-0.512,4.096-2.048l4.608-6.144h0.512
			h237.056h0.512l4.608,6.144c1.024,1.536,2.56,2.048,4.096,2.048c1.024,0,2.048-0.512,3.072-1.024
			c2.048-1.536,2.56-5.12,1.024-7.168l-31.232-39.424h15.872c0,0,0.512,0,1.536,0c4.608,0,18.944-1.024,28.672-10.24
			c6.656-6.144,9.728-14.848,9.728-25.088V78.848C359.154,78.336,360.69,59.392,342.77,40.448z M304.882,374.272v0.512l8.704,10.752
			H90.866l8.704-11.264h0.512H304.882z M296.69,364.544H107.762l6.656-8.192v-0.512h175.616v0.512L296.69,364.544z M348.914,320.512
			c0,7.68-2.048,13.824-6.656,17.92c-8.704,8.192-23.04,7.168-23.04,7.168H73.97c-10.24,0-18.944-8.192-18.944-18.944v-97.792
			h293.888V320.512z M348.914,218.624H55.026V107.008h293.888V218.624z M348.914,78.336V97.28H55.026V77.824
			c0,0-1.024-14.848,13.312-30.72c15.36-16.896,51.2-36.864,133.632-36.864c81.408,0,117.248,19.968,133.12,36.864
			C349.938,62.464,348.914,77.312,348.914,78.336z"/>
	</g>
</g>
<g>
	<g>
		<path d="M109.81,261.12c-15.36,0-27.648,12.288-27.648,27.648c0,15.36,12.8,27.648,27.648,27.648
			c15.36,0,27.648-12.288,27.648-27.648C137.458,273.408,125.17,261.12,109.81,261.12z M109.81,305.664
			c-9.728,0-17.408-7.68-17.408-17.408c0-9.216,8.192-17.408,17.408-17.408c9.728,0,17.408,7.68,17.408,17.408
			C127.218,297.984,119.538,305.664,109.81,305.664z"/>
	</g>
</g>
<g>
	<g>
		<path d="M294.13,261.12c-15.36,0-27.648,12.288-27.648,27.648c0,15.36,12.288,27.648,27.648,27.648
			c15.36,0,27.648-12.288,27.648-27.648C321.778,273.408,309.49,261.12,294.13,261.12z M294.13,305.664
			c-9.728,0-17.408-7.68-17.408-17.408c0-9.216,7.68-17.408,17.408-17.408c9.728,0,17.408,7.68,17.408,17.408
			C311.538,297.984,303.858,305.664,294.13,305.664z"/>
	</g>
</g>
<g>
	<g>
		<path d="M239.346,37.376h-74.752c-10.752,0-18.944,8.704-18.944,18.944c0,10.752,8.704,18.944,18.944,18.944h74.752
			c10.752,0,18.944-8.704,18.944-18.944C258.802,46.08,250.098,37.376,239.346,37.376z M239.346,65.536h-74.752
			c-5.12,0-8.704-4.096-8.704-8.704c0-5.12,4.096-8.704,8.704-8.704h74.752c5.12,0,8.704,4.096,8.704,8.704
			C248.562,61.44,244.466,65.536,239.346,65.536z"/>
	</g>
</g>
<g>
</g>
<g>
</g>
<g>
</g>
<g>
</g>
<g>
</g>
<g>
</g>
<g>
</g>
<g>
</g>
<g>
</g>
<g>
</g>
<g>
</g>
<g>
</g>
<g>
</g>
<g>
</g>
<g>
</g>
</svg>
